<svg xmlns="http://www.w3.org/2000/svg" xmlns:xlink="http://www.w3.org/1999/xlink" width="1500" zoomAndPan="magnify" viewBox="0 0 1125 1124.99995" height="1500" preserveAspectRatio="xMidYMid meet" version="1.0"><defs><g/></defs><g fill="#000000" fill-opacity="1"><g transform="translate(154.141386, 884.977168)"><g><path d="M 275.492188 -333.292969 C 232.703125 -353.558594 190.667969 -353.558594 186.914062 -353.558594 C 148.628906 -353.558594 111.847656 -376.082031 111.847656 -419.617188 C 111.847656 -467.660156 145.628906 -492.433594 186.914062 -492.433594 C 225.949219 -492.433594 258.976562 -472.164062 260.480469 -429.375 C 260.480469 -427.125 264.230469 -423.371094 268.734375 -423.371094 L 362.566406 -423.371094 C 367.824219 -423.371094 371.578125 -427.125 370.824219 -429.375 C 369.324219 -531.464844 289.753906 -600.527344 186.914062 -600.527344 C 90.828125 -600.527344 0 -532.21875 0 -419.617188 C 0 -349.808594 35.28125 -296.511719 97.585938 -267.984375 C 141.125 -247.71875 181.660156 -247.71875 186.914062 -247.71875 C 220.695312 -246.214844 261.980469 -219.191406 261.980469 -174.902344 C 261.980469 -135.117188 226.699219 -108.09375 186.914062 -108.09375 C 186.914062 -108.09375 186.914062 -108.09375 186.164062 -108.09375 L 186.164062 0 C 186.914062 0 186.914062 0 186.914062 0 C 283 0 373.078125 -62.304688 373.078125 -174.902344 C 373.078125 -245.464844 338.546875 -304.015625 275.492188 -333.292969 Z M 275.492188 -333.292969 "/></g></g></g><g fill="#000000" fill-opacity="1"><g transform="translate(545.984674, 884.977168)"><g><path d="M 201.925781 -600.527344 L 7.507812 -600.527344 C 3.753906 -600.527344 0 -596.773438 0 -593.769531 L 0 -490.179688 L 201.925781 -490.179688 C 215.4375 -490.179688 290.503906 -486.425781 290.503906 -420.367188 C 290.503906 -354.3125 216.941406 -352.808594 201.925781 -352.808594 L 0 -352.808594 L 0 -6.757812 C 0 -3.753906 3.753906 0 7.507812 0 L 105.09375 0 C 110.347656 0 112.597656 -3.753906 112.597656 -6.757812 L 112.597656 -241.710938 L 201.925781 -241.710938 C 216.191406 -241.710938 404.605469 -243.964844 404.605469 -420.367188 C 404.605469 -596.773438 225.949219 -600.527344 201.925781 -600.527344 Z M 201.925781 -600.527344 "/></g></g></g></svg>